# xmcd
#
# Track frame offsets: 
#        150
#        12654
#        25374
#        36319
#        47263
#        60885
#        73630
#        86813
#        104641
#        117206
#        129610
#        153117
#        166466
#        180271
#        192867
#        203740
#        215966
#        229624
#        243205
#        255913
#
# Disc length: 3599 seconds
#
# Revision: 1
# Processed by: cddbd v1.5.2PL0 Copyright (c) Steve Scherf et al.
# Submitted via: ExactAudioCopy v1.3
#
DISCID=0b0e0d14
DTITLE=Various Artist - Spirit Of Blues - Roots Of Blues
DYEAR=2010
DGENRE=Blues
TTITLE0=T-Bone Walker - Blues Is A Woman
TTITLE1=Blind Boy Fuller - Money Spending Woman
TTITLE2=Marie Manning - Hard Luck and Trouble
TTITLE3=J.B.Lenoir - Mama Talk To Your Daughter
TTITLE4=Memphis Minnie - Me And My Chauffeur
TTITLE5=Ivory Joe Hunter - Landlord Blues
TTITLE6=Sleepy John Estes - Jailhouse Blues
TTITLE7=James Cotton - V-8 Ford Blues
TTITLE8=Blind Willie McTell - You Was Born To Die
TTITLE9=Jimmy Reed - Shame Shame Shame
TTITLE10=Joe Louis Walker - I Got What You Need
TTITLE11=Lightnin' Hopkins - Mojo Hand
TTITLE12=Kokomo Arnold - Grandpa Got Drunk
TTITLE13=Lonnie Johnson - Blues In G
TTITLE14=Jimmy Rodgers - That's All Right
TTITLE15=Memphis Slim - Blues For My Baby
TTITLE16=Pee Wee Crayton - Blues After Hours
TTITLE17=Jelly Roll Morton - Jelly Roll Blues
TTITLE18=Howlin' Wolf - I've Got A Woman
TTITLE19=Rufus McKenzie - Slavery Time Blues
EXTD=CD 2 - Roots of blues
EXTT0=
EXTT1=
EXTT2=
EXTT3=
EXTT4=
EXTT5=
EXTT6=
EXTT7=
EXTT8=
EXTT9=
EXTT10=
EXTT11=
EXTT12=
EXTT13=
EXTT14=
EXTT15=
EXTT16=
EXTT17=
EXTT18=
EXTT19=
PLAYORDER=
